<svg xmlns="http://www.w3.org/2000/svg" xmlns:xlink="http://www.w3.org/1999/xlink" width="63" zoomAndPan="magnify" viewBox="0 0 47.25 57.749998" height="77" preserveAspectRatio="xMidYMid meet" version="1.0"><defs><clipPath id="5168853a83"><path d="M 0 0.328125 L 33.960938 0.328125 L 33.960938 43.886719 L 0 43.886719 Z M 0 0.328125 " clip-rule="nonzero"/></clipPath><clipPath id="d4d6140954"><path d="M 11.8125 13.175781 L 45.773438 13.175781 L 45.773438 56.734375 L 11.8125 56.734375 Z M 11.8125 13.175781 " clip-rule="nonzero"/></clipPath></defs><g clip-path="url(#5168853a83)"><path fill="#ebf0f6" d="M 14.289062 4.929688 L 17.007812 6.5 L 17.007812 12.324219 L 11.964844 9.410156 L 11.964844 3.582031 Z M 17.183594 12.324219 L 22.226562 9.410156 L 22.226562 3.582031 L 17.183594 6.496094 Z M 17.007812 12.628906 L 5.429688 19.3125 L 5.429688 25.140625 L 17.007812 18.457031 Z M 28.761719 25.140625 L 28.761719 19.3125 L 17.183594 12.625 L 17.183594 18.453125 Z M 0.207031 22.226562 L 5.25 25.140625 L 5.25 19.3125 L 0.207031 16.398438 Z M 28.9375 19.3125 L 28.9375 25.140625 L 33.980469 22.226562 L 33.980469 16.398438 Z M 10.738281 22.277344 L 17.09375 25.945312 L 23.449219 22.277344 L 17.09375 18.605469 Z M 0.207031 28.257812 L 11.785156 34.941406 L 11.785156 29.113281 L 0.207031 22.429688 Z M 17.183594 26.199219 L 17.183594 32.027344 L 22.226562 34.941406 L 22.226562 29.113281 Z M 11.964844 34.941406 L 17.007812 32.027344 L 17.007812 26.199219 L 11.964844 29.113281 Z M 22.40625 29.113281 L 33.984375 22.429688 L 33.984375 28.257812 L 22.40625 34.941406 Z M 14.289062 36.589844 L 17.007812 38.15625 L 17.007812 43.984375 L 11.964844 41.074219 L 11.964844 35.246094 Z M 22.230469 35.246094 L 22.230469 41.074219 L 17.1875 43.984375 L 17.1875 38.15625 Z M 11.828125 3.355469 L 11.816406 3.363281 L 11.804688 3.378906 L 11.792969 3.390625 L 11.789062 3.40625 L 11.789062 9.410156 L 0.0742188 16.171875 L 0.0625 16.179688 C 0.0546875 16.183594 0.0507812 16.191406 0.046875 16.199219 L 0.0390625 16.214844 L 0.0351562 16.230469 L 0.0351562 28.308594 C 0.0351562 28.339844 0.046875 28.367188 0.078125 28.382812 L 11.785156 35.144531 L 11.785156 41.121094 C 11.785156 41.15625 11.800781 41.183594 11.828125 41.199219 L 17.050781 44.214844 L 17.066406 44.222656 L 17.117188 44.222656 L 17.132812 44.214844 L 17.136719 44.214844 L 22.355469 41.199219 C 22.386719 41.183594 22.402344 41.15625 22.402344 41.125 L 22.402344 35.144531 L 34.109375 28.382812 C 34.140625 28.367188 34.152344 28.339844 34.152344 28.308594 L 34.152344 16.230469 L 34.148438 16.214844 C 34.144531 16.199219 34.136719 16.191406 34.125 16.179688 L 34.109375 16.171875 L 22.40625 9.410156 L 22.40625 3.398438 L 22.398438 3.382812 L 22.386719 3.367188 L 22.371094 3.359375 L 22.367188 3.359375 L 17.140625 0.339844 C 17.109375 0.324219 17.078125 0.324219 17.050781 0.339844 Z M 11.828125 3.355469 " fill-opacity="1" fill-rule="evenodd"/></g><g clip-path="url(#d4d6140954)"><path fill="#ebf0f6" d="M 26.101562 17.773438 L 28.820312 19.34375 L 28.820312 25.171875 L 23.777344 22.257812 L 23.777344 16.429688 Z M 28.996094 25.171875 L 34.039062 22.257812 L 34.039062 16.429688 L 28.996094 19.34375 Z M 28.820312 25.476562 L 17.242188 32.160156 L 17.242188 37.984375 L 28.820312 31.300781 Z M 40.574219 37.984375 L 40.574219 32.160156 L 28.996094 25.472656 L 28.996094 31.300781 Z M 12.019531 35.070312 L 17.0625 37.984375 L 17.0625 32.160156 L 12.019531 29.246094 Z M 40.75 32.160156 L 40.75 37.984375 L 45.792969 35.070312 L 45.792969 29.246094 Z M 22.550781 35.121094 L 28.90625 38.792969 L 35.261719 35.121094 L 28.90625 31.453125 Z M 12.019531 41.101562 L 23.597656 47.785156 L 23.597656 41.960938 L 12.019531 35.273438 Z M 28.996094 39.046875 L 28.996094 44.871094 L 34.039062 47.785156 L 34.039062 41.960938 Z M 23.777344 47.785156 L 28.820312 44.871094 L 28.820312 39.046875 L 23.777344 41.960938 Z M 34.21875 41.960938 L 45.796875 35.273438 L 45.796875 41.101562 L 34.21875 47.785156 Z M 26.101562 49.433594 L 28.820312 51.003906 L 28.820312 56.832031 L 23.777344 53.917969 L 23.777344 48.089844 Z M 34.042969 48.089844 L 34.042969 53.917969 L 29 56.832031 L 29 51.003906 Z M 23.640625 16.199219 L 23.617188 16.222656 L 23.605469 16.238281 L 23.601562 16.253906 L 23.601562 22.257812 L 11.886719 29.015625 L 11.875 29.027344 C 11.867188 29.03125 11.863281 29.039062 11.859375 29.042969 L 11.851562 29.058594 L 11.847656 29.074219 L 11.847656 41.152344 C 11.847656 41.1875 11.859375 41.210938 11.890625 41.230469 L 23.597656 47.988281 L 23.597656 53.96875 C 23.597656 54.003906 23.613281 54.027344 23.640625 54.042969 L 28.863281 57.058594 L 28.878906 57.066406 L 28.929688 57.066406 L 28.945312 57.0625 L 28.949219 57.0625 L 34.167969 54.046875 C 34.199219 54.03125 34.214844 54.003906 34.214844 53.96875 L 34.214844 47.988281 L 45.921875 41.230469 C 45.953125 41.210938 45.964844 41.1875 45.964844 41.152344 L 45.964844 29.074219 L 45.960938 29.058594 C 45.957031 29.046875 45.949219 29.035156 45.9375 29.027344 L 45.921875 29.015625 L 34.21875 22.257812 L 34.21875 16.242188 L 34.210938 16.226562 L 34.199219 16.214844 L 34.183594 16.203125 L 34.179688 16.203125 L 28.953125 13.1875 C 28.921875 13.167969 28.890625 13.167969 28.863281 13.1875 Z M 23.640625 16.199219 " fill-opacity="1" fill-rule="evenodd"/></g></svg>