<svg xmlns="http://www.w3.org/2000/svg" xmlns:xlink="http://www.w3.org/1999/xlink" width="78" zoomAndPan="magnify" viewBox="0 0 58.5 48" height="64" preserveAspectRatio="xMidYMid meet" version="1.0"><defs><clipPath id="ab60e12ab4"><path d="M 11.734375 0 L 45.53125 0 L 45.53125 43.347656 L 11.734375 43.347656 Z M 11.734375 0 " clip-rule="nonzero"/></clipPath></defs><g clip-path="url(#ab60e12ab4)"><path fill="#ebf0f6" d="M 25.953125 4.578125 L 28.660156 6.140625 L 28.660156 11.9375 L 23.640625 9.039062 L 23.640625 3.238281 Z M 28.835938 11.9375 L 33.851562 9.039062 L 33.851562 3.238281 L 28.835938 6.136719 Z M 28.660156 12.242188 L 17.136719 18.890625 L 17.136719 24.691406 L 28.660156 18.039062 Z M 40.355469 24.691406 L 40.355469 18.890625 L 28.835938 12.238281 L 28.835938 18.039062 Z M 11.941406 21.792969 L 16.960938 24.691406 L 16.960938 18.890625 L 11.941406 15.992188 Z M 40.53125 18.890625 L 40.53125 24.691406 L 45.550781 21.792969 L 45.550781 15.992188 Z M 22.421875 21.839844 L 28.746094 25.492188 L 35.070312 21.839844 L 28.746094 18.191406 Z M 11.941406 27.792969 L 23.460938 34.445312 L 23.460938 28.644531 L 11.941406 21.992188 Z M 28.835938 25.746094 L 28.835938 31.542969 L 33.855469 34.445312 L 33.855469 28.644531 Z M 23.640625 34.445312 L 28.660156 31.542969 L 28.660156 25.746094 L 23.640625 28.644531 Z M 34.03125 28.644531 L 45.550781 21.992188 L 45.550781 27.792969 L 34.03125 34.445312 Z M 25.953125 36.085938 L 28.660156 37.644531 L 28.660156 43.445312 L 23.640625 40.546875 L 23.640625 34.746094 Z M 33.855469 34.746094 L 33.855469 40.546875 L 28.835938 43.445312 L 28.835938 37.644531 Z M 23.507812 3.011719 L 23.492188 3.023438 L 23.480469 3.035156 L 23.464844 3.066406 L 23.464844 9.039062 L 11.8125 15.765625 L 11.796875 15.773438 C 11.789062 15.78125 11.785156 15.785156 11.78125 15.792969 L 11.773438 15.808594 L 11.769531 15.824219 L 11.769531 27.84375 C 11.769531 27.875 11.78125 27.902344 11.8125 27.917969 L 23.460938 34.644531 L 23.460938 40.597656 C 23.460938 40.628906 23.476562 40.65625 23.507812 40.671875 L 28.703125 43.671875 L 28.71875 43.679688 L 28.765625 43.679688 L 28.785156 43.675781 L 28.789062 43.675781 L 33.984375 40.675781 C 34.011719 40.65625 34.027344 40.632812 34.027344 40.597656 L 34.027344 34.644531 L 45.679688 27.917969 C 45.707031 27.902344 45.722656 27.875 45.722656 27.84375 L 45.722656 15.824219 L 45.71875 15.808594 C 45.710938 15.796875 45.703125 15.785156 45.695312 15.773438 L 45.679688 15.765625 L 34.03125 9.039062 L 34.03125 3.054688 L 34.023438 3.039062 L 34 3.015625 L 33.992188 3.015625 L 28.789062 0.0117188 C 28.761719 -0.00390625 28.730469 -0.00390625 28.703125 0.0117188 Z M 23.507812 3.011719 " fill-opacity="1" fill-rule="evenodd"/></g></svg>