<svg xmlns="http://www.w3.org/2000/svg" xmlns:xlink="http://www.w3.org/1999/xlink" width="131" zoomAndPan="magnify" viewBox="0 0 98.25 224.25" height="299" preserveAspectRatio="xMidYMid meet" version="1.0"><defs><clipPath id="57506f514a"><path d="M 0 0.476562 L 97.503906 0.476562 L 97.503906 223.027344 L 0 223.027344 Z M 0 0.476562 " clip-rule="nonzero"/></clipPath><clipPath id="954b793c77"><path d="M 0 0.476562 L 97.503906 0.476562 L 97.503906 97.984375 L 0 97.984375 Z M 0 0.476562 " clip-rule="nonzero"/></clipPath><clipPath id="1348140d99"><path d="M 0 125.535156 L 97.503906 125.535156 L 97.503906 223 L 0 223 Z M 0 125.535156 " clip-rule="nonzero"/></clipPath></defs><g clip-path="url(#57506f514a)"><path fill="#ffffff" d="M 0 0.476562 L 97.503906 0.476562 L 97.503906 223.027344 L 0 223.027344 Z M 0 0.476562 " fill-opacity="1" fill-rule="nonzero"/></g><g clip-path="url(#954b793c77)"><path fill="#c2d0df" d="M 48.601562 0.476562 C 21.804688 0.476562 0 22.28125 0 49.078125 C 0 63.4375 6.265625 76.359375 16.199219 85.265625 L 16.199219 85.300781 L 16.90625 85.90625 C 17.027344 86.015625 17.164062 86.101562 17.289062 86.207031 C 18.164062 86.945312 19.0625 87.652344 19.984375 88.328125 C 20.234375 88.511719 20.484375 88.6875 20.738281 88.863281 C 21.71875 89.550781 22.71875 90.207031 23.746094 90.824219 C 23.921875 90.925781 24.097656 91.023438 24.269531 91.125 C 25.394531 91.78125 26.546875 92.398438 27.730469 92.960938 C 27.742188 92.96875 27.753906 92.972656 27.769531 92.976562 C 30.296875 94.183594 32.949219 95.167969 35.695312 95.925781 C 35.746094 95.941406 35.796875 95.957031 35.847656 95.96875 C 37.144531 96.324219 38.464844 96.621094 39.804688 96.867188 C 39.929688 96.890625 40.054688 96.910156 40.179688 96.933594 C 41.472656 97.160156 42.78125 97.339844 44.105469 97.464844 C 44.257812 97.476562 44.410156 97.484375 44.558594 97.5 C 45.894531 97.609375 47.238281 97.679688 48.601562 97.679688 C 49.964844 97.679688 51.308594 97.609375 52.644531 97.5 C 52.796875 97.484375 52.949219 97.476562 53.097656 97.464844 C 54.421875 97.34375 55.730469 97.160156 57.023438 96.933594 C 57.148438 96.910156 57.273438 96.890625 57.398438 96.867188 C 58.738281 96.621094 60.058594 96.324219 61.355469 95.96875 C 61.40625 95.957031 61.457031 95.941406 61.507812 95.925781 C 64.253906 95.167969 66.90625 94.183594 69.4375 92.976562 C 69.449219 92.972656 69.460938 92.96875 69.472656 92.960938 C 70.65625 92.398438 71.808594 91.777344 72.933594 91.125 C 73.109375 91.023438 73.28125 90.925781 73.457031 90.824219 C 74.484375 90.207031 75.488281 89.550781 76.464844 88.863281 C 76.71875 88.6875 76.96875 88.511719 77.21875 88.328125 C 78.140625 87.652344 79.039062 86.945312 79.914062 86.207031 C 80.039062 86.101562 80.175781 86.015625 80.296875 85.90625 L 81.003906 85.300781 L 81.003906 85.265625 C 90.9375 76.359375 97.203125 63.4375 97.203125 49.078125 C 97.203125 22.28125 75.398438 0.476562 48.601562 0.476562 Z M 48.601562 49.078125 C 39.667969 49.078125 32.402344 41.8125 32.402344 32.878906 C 32.402344 23.945312 39.667969 16.679688 48.601562 16.679688 C 57.535156 16.679688 64.800781 23.945312 64.800781 32.878906 C 64.800781 41.8125 57.535156 49.078125 48.601562 49.078125 Z M 54.675781 53.128906 C 66.957031 53.128906 76.953125 63.121094 76.953125 75.40625 L 76.953125 83.421875 C 76.867188 83.492188 76.777344 83.554688 76.695312 83.625 C 75.894531 84.277344 75.074219 84.894531 74.234375 85.484375 C 74.046875 85.617188 73.867188 85.753906 73.679688 85.878906 C 72.773438 86.5 71.84375 87.078125 70.898438 87.625 C 70.726562 87.726562 70.554688 87.828125 70.378906 87.925781 C 69.386719 88.484375 68.375 89.003906 67.34375 89.484375 C 67.238281 89.535156 67.128906 89.582031 67.019531 89.632812 C 63.65625 91.160156 60.113281 92.269531 56.464844 92.921875 C 56.347656 92.945312 56.234375 92.964844 56.117188 92.988281 C 54.96875 93.183594 53.8125 93.335938 52.644531 93.441406 C 52.484375 93.457031 52.324219 93.464844 52.160156 93.480469 C 50.980469 93.570312 49.792969 93.628906 48.601562 93.628906 C 47.410156 93.628906 46.222656 93.570312 45.042969 93.472656 C 44.882812 93.460938 44.71875 93.453125 44.558594 93.4375 C 43.390625 93.332031 42.234375 93.179688 41.085938 92.984375 C 40.96875 92.960938 40.855469 92.941406 40.738281 92.917969 C 37.089844 92.261719 33.546875 91.15625 30.183594 89.625 C 30.074219 89.578125 29.964844 89.53125 29.859375 89.480469 C 28.828125 89 27.816406 88.480469 26.824219 87.921875 C 26.648438 87.824219 26.476562 87.722656 26.304688 87.621094 C 25.359375 87.074219 24.429688 86.492188 23.523438 85.875 C 23.335938 85.75 23.152344 85.613281 22.96875 85.480469 C 22.128906 84.890625 21.308594 84.273438 20.511719 83.621094 C 20.425781 83.554688 20.335938 83.488281 20.25 83.414062 L 20.25 75.40625 C 20.25 63.121094 30.246094 53.128906 42.527344 53.128906 Z M 81.003906 79.609375 L 81.003906 75.40625 C 81.003906 62.707031 71.960938 52.078125 59.984375 49.617188 C 65.332031 45.96875 68.851562 39.828125 68.851562 32.878906 C 68.851562 21.710938 59.769531 12.628906 48.601562 12.628906 C 37.433594 12.628906 28.351562 21.710938 28.351562 32.878906 C 28.351562 39.828125 31.871094 45.96875 37.222656 49.617188 C 25.242188 52.078125 16.199219 62.707031 16.199219 75.40625 L 16.199219 79.609375 C 8.675781 71.628906 4.050781 60.886719 4.050781 49.078125 C 4.050781 24.511719 24.035156 4.527344 48.601562 4.527344 C 73.167969 4.527344 93.152344 24.511719 93.152344 49.078125 C 93.152344 60.886719 88.527344 71.628906 81.003906 79.609375 Z M 81.003906 79.609375 " fill-opacity="1" fill-rule="nonzero"/></g><path fill="#c2d0df" d="M 65.253906 164.234375 L 62.460938 164.234375 L 62.460938 153.253906 C 62.460938 145.613281 56.246094 139.394531 48.601562 139.394531 C 40.957031 139.394531 34.742188 145.613281 34.742188 153.253906 L 34.742188 164.234375 L 31.949219 164.234375 C 27.78125 164.234375 24.390625 167.625 24.390625 171.796875 L 24.390625 195.914062 C 24.390625 200.085938 27.78125 203.476562 31.949219 203.476562 L 65.253906 203.476562 C 69.421875 203.476562 72.8125 200.085938 72.8125 195.914062 L 72.8125 171.796875 C 72.8125 167.625 69.421875 164.234375 65.253906 164.234375 Z M 39.0625 153.253906 C 39.0625 147.996094 43.34375 143.714844 48.601562 143.714844 C 53.859375 143.714844 58.140625 147.996094 58.140625 153.253906 L 58.140625 164.234375 L 39.0625 164.234375 Z M 68.492188 195.917969 C 68.492188 197.703125 67.039062 199.15625 65.253906 199.15625 L 31.949219 199.15625 C 30.164062 199.15625 28.710938 197.703125 28.710938 195.917969 L 28.710938 171.796875 C 28.710938 170.007812 30.164062 168.554688 31.949219 168.554688 L 65.253906 168.554688 C 67.039062 168.554688 68.492188 170.007812 68.492188 171.796875 Z M 68.492188 195.917969 " fill-opacity="1" fill-rule="nonzero"/><g clip-path="url(#1348140d99)"><path fill="#c2d0df" d="M 48.601562 125.535156 C 21.800781 125.535156 0 147.335938 0 174.136719 C 0 200.933594 21.800781 222.738281 48.601562 222.738281 C 75.402344 222.738281 97.203125 200.933594 97.203125 174.136719 C 97.203125 147.335938 75.402344 125.535156 48.601562 125.535156 Z M 48.601562 218.417969 C 24.183594 218.417969 4.320312 198.550781 4.320312 174.136719 C 4.320312 149.71875 24.183594 129.855469 48.601562 129.855469 C 73.019531 129.855469 92.882812 149.71875 92.882812 174.136719 C 92.882812 198.550781 73.019531 218.417969 48.601562 218.417969 Z M 48.601562 218.417969 " fill-opacity="1" fill-rule="nonzero"/></g></svg>